<svg width="36" height="36" viewBox="0 0 36 36" fill="none" xmlns="http://www.w3.org/2000/svg">
<path d="M22.4999 2.69995H9.8999C7.41462 2.69995 5.3999 4.71467 5.3999 7.19995V27C5.3999 29.4852 7.41462 31.5 9.8999 31.5H22.4999C24.9852 31.5 26.9999 29.4852 26.9999 27V7.19995C26.9999 4.71467 24.9852 2.69995 22.4999 2.69995Z" fill="#1E4969"/>
<path d="M22.4999 2.69995H9.8999C7.41462 2.69995 5.3999 4.71467 5.3999 7.19995V27C5.3999 29.4852 7.41462 31.5 9.8999 31.5H22.4999C24.9852 31.5 26.9999 29.4852 26.9999 27V7.19995C26.9999 4.71467 24.9852 2.69995 22.4999 2.69995Z" fill="url(#paint0_linear_52_1460)" fill-opacity="0.15"/>
<path d="M17.0999 9H10.7999C10.3028 9 9.8999 9.40294 9.8999 9.9C9.8999 10.3971 10.3028 10.8 10.7999 10.8H17.0999C17.597 10.8 17.9999 10.3971 17.9999 9.9C17.9999 9.40294 17.597 9 17.0999 9Z" fill="white" fill-opacity="0.85"/>
<path d="M21.5999 13.5H10.7999C10.3028 13.5 9.8999 13.9029 9.8999 14.4C9.8999 14.8971 10.3028 15.3 10.7999 15.3H21.5999C22.097 15.3 22.4999 14.8971 22.4999 14.4C22.4999 13.9029 22.097 13.5 21.5999 13.5Z" fill="white" fill-opacity="0.55"/>
<path d="M9.8999 20.7001H12.5999L13.9499 17.1001L16.1999 25.2001L17.9999 19.8001L19.3499 22.5001H22.4999" stroke="#368CA0" stroke-width="1.8" stroke-linecap="round" stroke-linejoin="round"/>
<path d="M28.8 33.3C32.2794 33.3 35.1 30.4793 35.1 27C35.1 23.5206 32.2794 20.7 28.8 20.7C25.3206 20.7 22.5 23.5206 22.5 27C22.5 30.4793 25.3206 33.3 28.8 33.3Z" fill="#368CA0"/>
<path d="M28.8 29.7V24.75M30.6 26.55L28.8 24.75L27 26.55" stroke="white" stroke-width="1.26" stroke-linecap="round" stroke-linejoin="round"/>
<defs>
<linearGradient id="paint0_linear_52_1460" x1="5.3999" y1="2.69995" x2="26.9999" y2="31.4999" gradientUnits="userSpaceOnUse">
<stop stop-color="white"/>
<stop offset="1" stop-color="white" stop-opacity="0"/>
</linearGradient>
</defs>
</svg>
