<svg width="162" height="36" viewBox="0 0 162 36" fill="none" xmlns="http://www.w3.org/2000/svg">
<path d="M22.4999 2.69995H9.8999C7.41462 2.69995 5.3999 4.71467 5.3999 7.19995V27C5.3999 29.4852 7.41462 31.5 9.8999 31.5H22.4999C24.9852 31.5 26.9999 29.4852 26.9999 27V7.19995C26.9999 4.71467 24.9852 2.69995 22.4999 2.69995Z" fill="#1E4969"/>
<path d="M22.4999 2.69995H9.8999C7.41462 2.69995 5.3999 4.71467 5.3999 7.19995V27C5.3999 29.4852 7.41462 31.5 9.8999 31.5H22.4999C24.9852 31.5 26.9999 29.4852 26.9999 27V7.19995C26.9999 4.71467 24.9852 2.69995 22.4999 2.69995Z" fill="url(#paint0_linear_63_516)" fill-opacity="0.15"/>
<path d="M17.0999 9H10.7999C10.3028 9 9.8999 9.40294 9.8999 9.9C9.8999 10.3971 10.3028 10.8 10.7999 10.8H17.0999C17.597 10.8 17.9999 10.3971 17.9999 9.9C17.9999 9.40294 17.597 9 17.0999 9Z" fill="white" fill-opacity="0.85"/>
<path d="M21.5999 13.5H10.7999C10.3028 13.5 9.8999 13.9029 9.8999 14.4C9.8999 14.8971 10.3028 15.3 10.7999 15.3H21.5999C22.097 15.3 22.4999 14.8971 22.4999 14.4C22.4999 13.9029 22.097 13.5 21.5999 13.5Z" fill="white" fill-opacity="0.55"/>
<path d="M9.8999 20.7001H12.5999L13.9499 17.1001L16.1999 25.2001L17.9999 19.8001L19.3499 22.5001H22.4999" stroke="#368CA0" stroke-width="1.8" stroke-linecap="round" stroke-linejoin="round"/>
<path d="M28.8 33.3C32.2794 33.3 35.1 30.4793 35.1 27C35.1 23.5206 32.2794 20.7 28.8 20.7C25.3206 20.7 22.5 23.5206 22.5 27C22.5 30.4793 25.3206 33.3 28.8 33.3Z" fill="#368CA0"/>
<path d="M28.8 29.7V24.75M30.6 26.55L28.8 24.75L27 26.55" stroke="white" stroke-width="1.26" stroke-linecap="round" stroke-linejoin="round"/>
<path d="M42.3906 26.1667V10.1667H45.7734V16.7683H52.6406V10.1667H56.0156V26.1667H52.6406V19.5574H45.7734V26.1667H42.3906ZM63.6609 26.4011C62.4266 26.4011 61.3641 26.1511 60.4734 25.6511C59.588 25.1459 58.9057 24.4324 58.4266 23.5105C57.9474 22.5834 57.7078 21.4871 57.7078 20.2214C57.7078 18.9871 57.9474 17.9037 58.4266 16.9714C58.9057 16.0391 59.5802 15.3126 60.45 14.7917C61.325 14.2709 62.351 14.0105 63.5281 14.0105C64.3198 14.0105 65.0568 14.1381 65.7391 14.3933C66.4266 14.6433 67.0255 15.0209 67.5359 15.5261C68.0516 16.0313 68.4526 16.6667 68.7391 17.4324C69.0255 18.1928 69.1688 19.0834 69.1688 20.1042V21.0183H59.0359V18.9558H66.0359C66.0359 18.4766 65.9318 18.0522 65.7234 17.6824C65.5151 17.3126 65.226 17.0235 64.8562 16.8152C64.4917 16.6016 64.0672 16.4949 63.5828 16.4949C63.0776 16.4949 62.6297 16.6121 62.2391 16.8464C61.8536 17.0756 61.5516 17.3855 61.3328 17.7761C61.1141 18.1615 61.0021 18.5912 60.9969 19.0652V21.0261C60.9969 21.6199 61.1062 22.1329 61.325 22.5652C61.549 22.9975 61.8641 23.3308 62.2703 23.5652C62.6766 23.7996 63.1583 23.9167 63.7156 23.9167C64.0854 23.9167 64.424 23.8647 64.7312 23.7605C65.0385 23.6563 65.3016 23.5001 65.5203 23.2917C65.7391 23.0834 65.9057 22.8282 66.0203 22.5261L69.0984 22.7292C68.9422 23.4688 68.6219 24.1147 68.1375 24.6667C67.6583 25.2136 67.0385 25.6407 66.2781 25.948C65.5229 26.2501 64.6505 26.4011 63.6609 26.4011ZM74.2125 26.3933C73.4469 26.3933 72.7646 26.2605 72.1656 25.9949C71.5667 25.724 71.0927 25.3256 70.7437 24.7996C70.4 24.2683 70.2281 23.6069 70.2281 22.8152C70.2281 22.1485 70.3505 21.5886 70.5953 21.1355C70.8401 20.6824 71.1734 20.3178 71.5953 20.0417C72.0172 19.7657 72.4964 19.5574 73.0328 19.4167C73.5745 19.2761 74.1422 19.1772 74.7359 19.1199C75.4339 19.047 75.9964 18.9792 76.4234 18.9167C76.8505 18.849 77.1604 18.7501 77.3531 18.6199C77.5458 18.4897 77.6422 18.297 77.6422 18.0417V17.9949C77.6422 17.5001 77.4859 17.1173 77.1734 16.8464C76.8661 16.5756 76.4286 16.4402 75.8609 16.4402C75.262 16.4402 74.7854 16.573 74.4312 16.8386C74.0771 17.099 73.8427 17.4272 73.7281 17.823L70.65 17.573C70.8062 16.8438 71.1135 16.2136 71.5719 15.6824C72.0302 15.1459 72.6214 14.7345 73.3453 14.448C74.0745 14.1563 74.9182 14.0105 75.8766 14.0105C76.5432 14.0105 77.1812 14.0886 77.7906 14.2449C78.4052 14.4011 78.9495 14.6433 79.4234 14.9714C79.9026 15.2996 80.2802 15.7214 80.5562 16.2371C80.8323 16.7475 80.9703 17.3595 80.9703 18.073V26.1667H77.8141V24.5027H77.7203C77.5276 24.8777 77.2698 25.2084 76.9469 25.4949C76.624 25.7761 76.2359 25.9975 75.7828 26.1589C75.3297 26.3152 74.8062 26.3933 74.2125 26.3933ZM75.1656 24.0964C75.6552 24.0964 76.0875 24.0001 76.4625 23.8074C76.8375 23.6095 77.1318 23.3438 77.3453 23.0105C77.5589 22.6772 77.6656 22.2996 77.6656 21.8777V20.6042C77.5615 20.672 77.4182 20.7345 77.2359 20.7917C77.0589 20.8438 76.8583 20.8933 76.6344 20.9402C76.4104 20.9819 76.1865 21.0209 75.9625 21.0574C75.7385 21.0886 75.5354 21.1173 75.3531 21.1433C74.9625 21.2006 74.6214 21.2917 74.3297 21.4167C74.038 21.5417 73.8115 21.711 73.65 21.9246C73.4885 22.1329 73.4078 22.3933 73.4078 22.7058C73.4078 23.1589 73.5719 23.5053 73.9 23.7449C74.2333 23.9792 74.6552 24.0964 75.1656 24.0964ZM86.3305 10.1667V26.1667H83.0023V10.1667H86.3305ZM94.8293 14.1667V16.6667H87.6027V14.1667H94.8293ZM89.2434 11.2917H92.5715V22.4792C92.5715 22.7865 92.6184 23.0261 92.7121 23.198C92.8059 23.3647 92.9361 23.4819 93.1027 23.5496C93.2746 23.6173 93.4725 23.6511 93.6965 23.6511C93.8527 23.6511 94.009 23.6381 94.1652 23.6121C94.3215 23.5808 94.4413 23.5574 94.5246 23.5417L95.048 26.0183C94.8814 26.0704 94.647 26.1303 94.3449 26.198C94.0428 26.2709 93.6757 26.3152 93.2434 26.3308C92.4413 26.3621 91.7382 26.2553 91.134 26.0105C90.535 25.7657 90.0689 25.3855 89.7355 24.8699C89.4022 24.3542 89.2382 23.7032 89.2434 22.9167V11.2917ZM100.033 19.2292V26.1667H96.7051V10.1667H99.9395V16.2839H100.08C100.351 15.5756 100.788 15.0209 101.393 14.6199C101.997 14.2136 102.755 14.0105 103.666 14.0105C104.499 14.0105 105.226 14.1928 105.846 14.5574C106.471 14.9167 106.955 15.435 107.299 16.1121C107.648 16.7839 107.82 17.5886 107.814 18.5261V26.1667H104.486V19.1199C104.492 18.3803 104.304 17.8048 103.924 17.3933C103.549 16.9819 103.023 16.7761 102.346 16.7761C101.893 16.7761 101.492 16.8725 101.143 17.0652C100.799 17.2579 100.528 17.5391 100.33 17.9089C100.137 18.2735 100.038 18.7136 100.033 19.2292Z" fill="#1E4969"/>
<path d="M109.618 11.8855V10.1667H121.618V11.8855H116.587V26.1667H114.649V11.8855H109.618ZM127.099 26.4167C125.943 26.4167 124.946 26.1615 124.107 25.6511C123.274 25.1355 122.63 24.4167 122.177 23.4949C121.729 22.5678 121.505 21.4897 121.505 20.2605C121.505 19.0313 121.729 17.948 122.177 17.0105C122.63 16.0678 123.261 15.3334 124.068 14.8074C124.88 14.2761 125.828 14.0105 126.912 14.0105C127.537 14.0105 128.154 14.1147 128.763 14.323C129.373 14.5313 129.927 14.8699 130.427 15.3386C130.927 15.8022 131.326 16.4167 131.623 17.1824C131.92 17.948 132.068 18.8907 132.068 20.0105V20.7917H122.818V19.198H130.193C130.193 18.5209 130.058 17.9167 129.787 17.3855C129.521 16.8542 129.141 16.435 128.646 16.1277C128.157 15.8204 127.578 15.6667 126.912 15.6667C126.177 15.6667 125.542 15.849 125.005 16.2136C124.474 16.573 124.065 17.0417 123.779 17.6199C123.492 18.198 123.349 18.8178 123.349 19.4792V20.5417C123.349 21.448 123.505 22.2162 123.818 22.8464C124.136 23.4714 124.576 23.948 125.138 24.2761C125.701 24.599 126.354 24.7605 127.099 24.7605C127.584 24.7605 128.021 24.6928 128.412 24.5574C128.808 24.4167 129.149 24.2084 129.435 23.9324C129.722 23.6511 129.943 23.3022 130.099 22.8855L131.88 23.3855C131.693 23.9897 131.378 24.5209 130.935 24.9792C130.492 25.4324 129.946 25.7865 129.295 26.0417C128.643 26.2917 127.912 26.4167 127.099 26.4167ZM139.198 26.4167C138.073 26.4167 137.104 26.1511 136.291 25.6199C135.479 25.0886 134.854 24.3569 134.416 23.4246C133.979 22.4923 133.76 21.4272 133.76 20.2292C133.76 19.0105 133.984 17.935 134.432 17.0027C134.885 16.0652 135.515 15.3334 136.323 14.8074C137.135 14.2761 138.083 14.0105 139.166 14.0105C140.01 14.0105 140.771 14.1667 141.448 14.4792C142.125 14.7917 142.679 15.2292 143.112 15.7917C143.544 16.3542 143.812 17.0105 143.916 17.7605H142.073C141.932 17.2136 141.62 16.7292 141.135 16.3074C140.656 15.8803 140.01 15.6667 139.198 15.6667C138.479 15.6667 137.849 15.8542 137.307 16.2292C136.771 16.599 136.351 17.1225 136.049 17.7996C135.752 18.4714 135.604 19.2605 135.604 20.1667C135.604 21.0938 135.75 21.9011 136.041 22.5886C136.338 23.2761 136.755 23.81 137.291 24.1902C137.833 24.5704 138.468 24.7605 139.198 24.7605C139.677 24.7605 140.112 24.6772 140.502 24.5105C140.893 24.3438 141.224 24.1042 141.495 23.7917C141.765 23.4792 141.958 23.1042 142.073 22.6667H143.916C143.812 23.3751 143.554 24.0131 143.143 24.5808C142.737 25.1433 142.198 25.5912 141.526 25.9246C140.859 26.2527 140.083 26.4167 139.198 26.4167ZM147.905 18.948V26.1667H146.062V10.1667H147.905V16.0417H148.062C148.343 15.422 148.765 14.9298 149.327 14.5652C149.895 14.1954 150.65 14.0105 151.593 14.0105C152.411 14.0105 153.127 14.1746 153.741 14.5027C154.356 14.8256 154.833 15.323 155.171 15.9949C155.515 16.6615 155.687 17.5105 155.687 18.5417V26.1667H153.843V18.6667C153.843 17.7136 153.596 16.9766 153.101 16.4558C152.611 15.9298 151.932 15.6667 151.062 15.6667C150.458 15.6667 149.916 15.7944 149.437 16.0496C148.963 16.3048 148.588 16.6772 148.312 17.1667C148.041 17.6563 147.905 18.2501 147.905 18.948Z" fill="#368CA0"/>
<defs>
<linearGradient id="paint0_linear_63_516" x1="5.3999" y1="2.69995" x2="26.9999" y2="31.4999" gradientUnits="userSpaceOnUse">
<stop stop-color="white"/>
<stop offset="1" stop-color="white" stop-opacity="0"/>
</linearGradient>
</defs>
</svg>
