<svg width="48" height="48" viewBox="0 0 48 48" fill="none" xmlns="http://www.w3.org/2000/svg">
<path d="M0 14C0 6.26801 6.26801 0 14 0H34C41.732 0 48 6.26801 48 14V34C48 41.732 41.732 48 34 48H14C6.26801 48 0 41.732 0 34V14Z" fill="#1E4969" fill-opacity="0.1"/>
<path d="M27.6668 32.25V30.4167C27.6668 29.4442 27.2805 28.5116 26.5929 27.8239C25.9053 27.1363 24.9726 26.75 24.0002 26.75H18.5002C17.5277 26.75 16.5951 27.1363 15.9074 27.8239C15.2198 28.5116 14.8335 29.4442 14.8335 30.4167V32.25" stroke="#1E4969" stroke-width="1.83333" stroke-linecap="round" stroke-linejoin="round"/>
<path d="M21.2502 23.0833C23.2752 23.0833 24.9168 21.4417 24.9168 19.4167C24.9168 17.3916 23.2752 15.75 21.2502 15.75C19.2251 15.75 17.5835 17.3916 17.5835 19.4167C17.5835 21.4417 19.2251 23.0833 21.2502 23.0833Z" stroke="#1E4969" stroke-width="1.83333" stroke-linecap="round" stroke-linejoin="round"/>
<path d="M33.1665 32.25V30.4166C33.1659 29.6042 32.8955 28.815 32.3978 28.1729C31.9 27.5308 31.2031 27.0722 30.4165 26.8691" stroke="#1E4969" stroke-width="1.83333" stroke-linecap="round" stroke-linejoin="round"/>
<path d="M27.6665 15.8691C28.4552 16.0711 29.1543 16.5298 29.6535 17.1729C30.1527 17.8161 30.4237 18.6071 30.4237 19.4212C30.4237 20.2354 30.1527 21.0264 29.6535 21.6695C29.1543 22.3127 28.4552 22.7714 27.6665 22.9733" stroke="#1E4969" stroke-width="1.83333" stroke-linecap="round" stroke-linejoin="round"/>
</svg>
